<svg aria-hidden="true" style="position: absolute; width: 0; height: 0; overflow: hidden;" version="1.1" xmlns="http://www.w3.org/2000/svg" xmlns:xlink="http://www.w3.org/1999/xlink">
<defs>
<symbol id="shield" viewBox="0 0 32 32">
<path fill="" style="" d="M28 14.667c0 7.4-5.12 14.32-12 16-6.88-1.68-12-8.6-12-16v-8l12-5.333 12 5.333v8zM16 28c5-1.333 9.333-7.28 9.333-13.040v-6.56l-9.333-4.16-9.333 4.16v6.56c0 5.76 4.333 11.707 9.333 13.040z"></path>
</symbol>
<symbol id="heart" viewBox="0 0 32 32">
<path fill="" style="" d="M16 7.333l-0.72 0.693c0.093 0.097 0.205 0.174 0.329 0.226s0.257 0.080 0.391 0.080c0.134 0 0.267-0.027 0.391-0.080s0.235-0.13 0.329-0.226l-0.72-0.693zM9.335 21.893c-0.205-0.169-0.469-0.249-0.733-0.223s-0.508 0.155-0.676 0.361c-0.169 0.205-0.249 0.469-0.223 0.733s0.155 0.508 0.361 0.676l1.272-1.547zM3.123 17.881c0.063 0.115 0.148 0.217 0.25 0.299s0.22 0.144 0.346 0.181 0.258 0.049 0.389 0.035c0.131-0.014 0.257-0.054 0.372-0.117s0.217-0.148 0.299-0.251c0.082-0.102 0.144-0.22 0.181-0.346s0.049-0.258 0.034-0.389c-0.014-0.131-0.054-0.257-0.117-0.372l-1.755 0.96zM3.667 12.183c0-2.867 1.62-5.272 3.832-6.284 2.149-0.983 5.037-0.723 7.781 2.128l1.44-1.385c-3.253-3.383-7.035-3.941-10.053-2.561-2.952 1.351-5 4.487-5 8.103h2zM11.329 26c0.684 0.539 1.417 1.112 2.16 1.547 0.743 0.433 1.591 0.787 2.511 0.787v-2c-0.413 0-0.899-0.16-1.501-0.513-0.604-0.352-1.229-0.837-1.931-1.391l-1.239 1.571zM20.671 26c1.901-1.5 4.333-3.217 6.24-5.365 1.943-2.187 3.423-4.897 3.423-8.452h-2c0 2.931-1.2 5.188-2.917 7.124-1.753 1.973-3.963 3.529-5.984 5.123l1.239 1.571zM30.333 12.183c0-3.616-2.047-6.752-5-8.103-3.019-1.38-6.797-0.821-10.053 2.56l1.44 1.387c2.744-2.849 5.632-3.111 7.781-2.128 2.212 1.012 3.832 3.416 3.832 6.284h2zM19.432 24.429c-0.701 0.553-1.327 1.039-1.931 1.391-0.603 0.352-1.088 0.513-1.501 0.513v2c0.92 0 1.768-0.353 2.511-0.787 0.744-0.435 1.476-1.008 2.16-1.547l-1.239-1.571zM12.568 24.429c-1.061-0.836-2.14-1.636-3.233-2.536l-1.272 1.547c1.107 0.911 2.277 1.78 3.267 2.56l1.239-1.571zM4.877 16.923c-0.803-1.45-1.22-3.082-1.211-4.74h-2c0 2.184 0.56 4.060 1.456 5.699l1.755-0.959z"></path>
</symbol>
<symbol id="bread" viewBox="0 0 32 32">
<path d="M19.2 1.92c0 0.427 0.267 0.64 0.533 0.48 0.32-0.213 0.427-0.587 0.267-0.853-0.48-0.747-0.8-0.587-0.8 0.373z"></path>
<path d="M20.267 3.68c0 0.32 1.387 0.587 3.040 0.693 2.453 0.107 3.147 0.373 3.253 1.067 0.16 0.853-0.373 0.96-5.44 0.96-3.52 0-5.653 0.213-5.653 0.533 0 0.373 2.027 0.533 5.653 0.427 4.747-0.16 5.813-0.32 6.293-1.12 1.12-1.76-0.213-2.773-3.893-2.933-1.92-0.107-3.253 0.053-3.253 0.373z"></path>
<path d="M3.733 6.933c0 0.267 0.267 0.533 0.587 0.533 0.267 0 0.373-0.267 0.213-0.533-0.16-0.32-0.427-0.533-0.587-0.533-0.107 0-0.213 0.213-0.213 0.533z"></path>
<path d="M10.24 7.040c-0.853 0.853-0.8 2.827 0.053 3.52 0.853 0.747 7.893 1.067 7.68 0.373-0.107-0.32-1.707-0.64-3.627-0.8-2.987-0.213-3.413-0.427-3.413-1.333 0-0.747 0.427-1.12 1.493-1.227 0.8-0.107 1.44-0.427 1.44-0.693 0-0.693-2.88-0.587-3.627 0.16z"></path>
<path d="M0.907 8.587c-1.813 1.067-0.747 3.68 1.547 3.68 0.693 0 1.547 0.48 1.973 1.12 0.48 0.64 0.907 0.853 1.12 0.533 0.533-0.853-1.653-2.72-3.147-2.72-1.547 0-1.813-1.28-0.48-2.027 0.48-0.267 0.693-0.64 0.427-0.8s-0.907-0.053-1.44 0.213z"></path>
<path d="M8.427 15.733c-6.987 1.92-10.133 6.773-7.36 11.307 2.080 3.467 2.773 3.627 14.933 3.627s12.853-0.16 14.933-3.627c2.613-4.267 0.16-8.8-5.867-10.773-2.453-0.8-2.72-0.8-4.213 0.053-1.867 1.12-3.573 3.947-3.093 5.227 0.64 1.547 1.867 1.493 4.32-0.213 2.507-1.707 3.52-3.467 1.12-1.92-4.267 2.773-3.947 2.613-4.32 1.76-0.373-1.013 1.013-3.2 2.667-4.053 1.067-0.587 1.653-0.48 4 0.48 3.84 1.653 5.6 3.84 5.227 6.56-0.32 2.4-1.547 3.947-3.947 4.96-2.4 1.067-19.253 1.067-21.653 0-2.4-1.013-3.627-2.56-3.947-4.96-0.32-2.453 1.013-4.48 4.107-6.027l2.080-1.067-0.533 1.76c-0.267 0.907-0.48 1.76-0.48 1.813 0 0.32 1.76 1.76 2.133 1.76 0.8 0 5.28-5.013 4.96-5.547-0.213-0.267-1.387 0.64-2.667 2.080-2.613 2.827-3.787 2.773-2.773-0.213 0.747-2.080 2.187-2.72 6.347-2.72 1.707 0 3.307-0.267 3.467-0.533 0.48-0.747-6.4-0.587-9.44 0.267z"></path>
</symbol>
<symbol id="pizza" viewBox="0 0 32 32">
<path d="M0.8 1.067c-0.96 1.067-0.96 1.333 1.28 10.827 2.667 11.467 2.56 11.2 3.2 10.827 0.213-0.16-0.64-4.853-1.973-10.453-1.867-7.733-2.293-10.293-1.813-10.773s3.413 0.053 12.427 2.187c10.773 2.56 11.84 2.72 12.693 1.973 2.187-1.973 4.693-0.427 4.107 2.453-1.44 7.2-9.387 16.747-16.96 20.373-5.013 2.4-7.413 2.88-8.373 1.76-0.373-0.48-0.587-1.387-0.48-2.080 0.16-1.227 0.533-1.493 6.453-4.107 2.667-1.173 4.64-2.613 7.307-5.227 3.307-3.36 6.88-8.907 6.187-9.653-0.373-0.373-0.32-0.427-2.187 2.827-3.147 5.493-8.747 10.24-14.4 12.267-1.44 0.533-3.093 1.333-3.573 1.76-1.28 1.067-1.227 3.573 0.16 4.96 1.547 1.547 3.787 1.12 9.547-1.707 6.293-3.093 11.787-8.587 14.88-14.88 2.827-5.76 3.253-8 1.707-9.547-1.28-1.28-3.573-1.44-4.8-0.373-0.747 0.693-2.24 0.48-12-1.867-6.133-1.44-11.467-2.613-11.787-2.613-0.373 0-1.067 0.48-1.6 1.067z"></path>
<path d="M3.84 4.693c-0.32 0.747-0.533 1.493-0.373 1.6 0.373 0.427 1.867-1.013 1.867-1.813 0-1.28-0.8-1.173-1.493 0.213z"></path>
<path d="M7.2 6.027c-0.213 0.533-0.267 1.12-0.053 1.28 0.533 0.533 0.96-0.213 0.693-1.28-0.213-0.907-0.213-0.907-0.64 0z"></path>
<path d="M10.667 7.68c-0.427 0.533-0.427 1.12-0.107 1.707s0.587 0.693 0.853 0.267c0.213-0.32 0.267-0.587 0.053-0.587-0.16 0-0.053-0.48 0.267-1.067 0.64-1.227-0.107-1.44-1.067-0.32z"></path>
<path d="M15.573 7.947c-0.427 0.213-0.64 0.907-0.533 1.493 0.053 0.587-0.16 1.44-0.533 1.92-0.427 0.48-0.64 1.28-0.533 1.813 0.213 1.12 2.4 1.6 3.253 0.747 0.32-0.32 1.28-0.587 2.080-0.587 1.387 0 1.493-0.16 1.493-2.080 0-1.6-0.32-2.347-1.173-2.933-1.333-0.96-2.987-1.067-4.053-0.373zM19.093 9.173c0.373 0.373 0.64 1.227 0.64 1.92 0 1.013-0.213 1.227-1.067 1.013-0.533-0.16-1.28 0.053-1.653 0.48-0.693 0.8-2.080 1.013-2.080 0.267 0-0.267 0.373-0.747 0.853-1.173 0.533-0.427 0.693-1.12 0.48-1.92-0.213-1.013-0.053-1.227 0.96-1.227 0.693 0 1.493 0.267 1.867 0.64z"></path>
<path d="M6.133 12.16c0.32 0.267 1.227 0.64 2.027 0.853 1.12 0.267 1.493 0.16 1.333-0.32-0.16-0.373-1.067-0.747-2.080-0.853-1.12-0.107-1.6 0-1.28 0.32z"></path>
<path d="M7.52 17.12c-0.907 2.453 2.027 4.747 4 3.147 0.96-0.8 1.013-3.733 0.053-3.733-0.373 0-0.693 0.64-0.64 1.44 0 1.12-0.267 1.493-1.067 1.493s-1.067-0.373-1.067-1.44c-0.053-1.973-0.693-2.453-1.28-0.907z"></path>
</symbol>
<symbol id="lightning" viewBox="0 0 32 32">
<path fill="" style="" d="M12.867 5.333l-4.148 9.333h4.596c0.92 0 1.568 0.9 1.277 1.773l-2.208 6.623 9.731-9.729h-3.427c-0.23-0-0.455-0.059-0.656-0.171s-0.369-0.273-0.49-0.468-0.189-0.418-0.2-0.648c-0.010-0.229 0.038-0.457 0.141-0.663l3.025-6.051h-7.643zM10.779 3.467c0.216-0.487 0.697-0.8 1.231-0.8h10.636c1 0 1.652 1.053 1.204 1.949l-3.025 6.051h4.477c1.2 0 1.8 1.451 0.952 2.299l-15.937 15.937c-1.005 1.005-2.68-0.029-2.229-1.377l3.397-10.192h-4.797c-0.224 0-0.445-0.056-0.642-0.163s-0.364-0.262-0.487-0.45c-0.122-0.188-0.196-0.404-0.213-0.627s0.021-0.448 0.112-0.653l5.323-11.973z"></path>
</symbol>
<symbol id="turkey" viewBox="0 0 32 32">
<path d="M16.8 1.013c-2.56 1.173-5.28 4.107-6.027 6.56-0.32 0.96-0.693 3.2-0.853 4.907-0.213 1.76-0.8 4.213-1.387 5.547-1.28 2.827-1.333 3.84-0.32 5.227 0.587 0.747 0.64 1.173 0.16 1.76-0.32 0.373-0.747 1.813-0.907 3.2-0.213 2.027-0.48 2.507-1.44 2.613-1.013 0.16-2.080-0.853-2.24-2.187-0.053-0.213-0.213-0.373-0.427-0.427-1.333-0.16-2.347-1.227-2.187-2.24 0.107-0.96 0.587-1.227 2.4-1.333 3.040-0.213 2.933-1.173-0.107-1.173-1.867 0-2.507 0.213-2.933 1.12-0.853 1.6-0.213 3.627 1.333 4.213 0.747 0.267 1.333 0.853 1.333 1.28 0 0.853 1.547 1.92 2.88 1.92s2.453-1.6 2.453-3.627c0-1.227 0.427-2.347 1.173-3.147l1.173-1.227-1.173-0.853c-1.44-1.013-1.493-2.080-0.16-5.067 0.587-1.333 1.28-4.213 1.6-6.507 0.64-5.173 2.187-7.733 5.653-9.44 8.427-4.053 17.12 4.747 13.013 13.227-1.6 3.307-4.32 4.907-9.12 5.44-4.16 0.48-6.827 1.28-6.827 2.027 0 0.267 1.227 0.16 2.773-0.213 1.547-0.427 3.573-0.747 4.587-0.747 3.84 0 8-2.827 9.76-6.667 4.053-8.693-5.44-18.187-14.187-14.187z"></path>
<path d="M17.76 4.533c-0.96 0.427-1.76 1.12-1.76 1.547 0 0.693 0.267 0.693 1.76-0.213 0.907-0.587 2.133-1.067 2.667-1.067 0.48 0 0.907-0.267 0.907-0.533 0-0.747-1.547-0.64-3.573 0.267z"></path>
<path d="M22.667 4.8c0.213 0.32 0.587 0.427 0.853 0.267 0.747-0.48 0.587-0.8-0.373-0.8-0.427 0-0.64 0.267-0.48 0.533z"></path>
<path d="M23.467 13.333c0 0.267 0.267 0.533 0.533 0.533 0.32 0 0.533-0.267 0.533-0.533 0-0.32-0.213-0.533-0.533-0.533-0.267 0-0.533 0.213-0.533 0.533z"></path>
<path d="M23.733 16c-0.16 0.267-0.053 0.533 0.213 0.533 0.32 0 0.587-0.267 0.587-0.533 0-0.32-0.107-0.533-0.213-0.533-0.16 0-0.427 0.213-0.587 0.533z"></path>
</symbol>
<symbol id="avocado" viewBox="0 0 32 32">
<path d="M5.76 0.587c-1.173 0.64-1.227 2.027-0.213 3.467 1.013 1.333 1.653 0.64 0.747-0.8-0.587-0.96-0.587-1.227 0.107-1.653 1.333-0.853 2.933-0.587 4.16 0.693 1.333 1.44 1.493 2.507 0.427 2.507-1.653 0-3.52 2.347-4 4.96-0.267 1.547-1.12 3.413-2.133 4.64-0.907 1.12-1.92 2.72-2.187 3.467-1.333 3.467 0 8.8 2.72 11.307 2.347 2.187 7.947 3.787 7.947 2.293 0-0.32-0.587-0.533-1.333-0.533-3.147 0-7.040-2.827-8.213-6.027-1.12-2.88-0.693-5.813 1.12-8.64 2.773-4.107 3.093-4.693 3.093-6.187 0-0.8 0.48-2.027 1.12-2.827 0.853-1.12 1.547-1.387 3.413-1.387s2.56 0.267 3.467 1.44c0.747 0.96 1.013 1.813 0.8 2.56-0.213 0.587-0.533 1.973-0.8 3.093-0.213 1.12-0.907 2.56-1.493 3.2-4.373 4.8-3.253 12.053 2.347 14.773 2.827 1.387 5.387 1.333 8.213-0.16 4.96-2.613 6.293-9.28 2.773-13.653-0.907-1.173-1.92-3.147-2.187-4.427-0.747-3.307-2.773-4.907-5.6-4.48-1.92 0.32-2.24 0.213-2.72-0.853-0.32-0.693-1.387-1.653-2.4-2.187-1.973-0.96-2.187-2.027-0.64-3.733 1.227-1.333 0.373-1.707-0.96-0.373l-1.12 1.12-1.387-1.12c-1.493-1.173-3.573-1.387-5.067-0.48zM23.040 10.133c0.853 0.64 1.493 1.813 1.707 3.093 0.16 1.12 1.013 2.987 1.92 4.107 1.92 2.4 2.347 3.893 1.973 6.667-1.013 7.52-10.88 9.44-14.613 2.88-1.973-3.413-1.493-6.453 1.707-10.827 0.747-1.013 1.333-2.453 1.333-3.307 0-0.96 0.48-1.867 1.387-2.56 1.76-1.387 2.88-1.387 4.587-0.053z"></path>
<path d="M17.227 19.467c-1.707 1.707-1.867 2.080-1.6 4.16 0.427 2.933 2.293 4.64 5.227 4.64 2.773 0 5.28-2.293 5.28-4.8 0-1.813-1.333-4.8-2.133-4.8-0.747 0-0.64 0.64 0.267 1.813 1.973 2.613 0 6.72-3.253 6.72-2.347 0-4.48-1.973-4.48-4.16 0-1.76 1.6-3.68 3.467-4.16 1.6-0.427 1.76-1.28 0.213-1.28-0.64 0-1.973 0.853-2.987 1.867z"></path>
<path d="M5.333 21.76c0 1.6 0.427 2.4 1.067 1.973 0.48-0.32 0-3.467-0.587-3.467-0.267 0-0.48 0.693-0.48 1.493z"></path>
</symbol>
<symbol id="cookies" viewBox="0 0 32 32">
<path d="M14.667 0.853c-1.92 0.693-4.747 2.827-4.32 3.253 0.107 0.107 1.547-0.533 3.253-1.44 2.133-1.12 3.787-1.6 5.547-1.6 6.773 0.053 12.373 6.24 11.627 12.853-0.373 3.040-2.347 6.827-4.213 8.053l-1.227 0.8v-3.787c-0.053-4.213-0.8-6.080-3.52-8.8-2.293-2.293-4.373-3.307-7.627-3.627-4-0.427-6.987 0.587-9.92 3.36-3.893 3.627-5.12 8.16-3.627 13.227 0.853 2.933 5.28 7.36 8.213 8.213 4.48 1.333 9.493 0.267 12.213-2.56 1.973-2.027 1.547-2.027-1.813 0.053-10.613 6.613-22.667-4.96-16.373-15.733 3.573-6.080 12.267-7.413 17.867-2.667 2.293 1.92 3.947 6.24 3.627 9.493-0.107 1.493-0.427 3.147-0.64 3.627-0.8 1.973 1.547 0.907 4.267-1.813 5.387-5.653 5.44-12.373 0-17.76-3.84-3.893-8.373-4.96-13.333-3.147z"></path>
<path d="M21.333 4.267c0 0.267 0.373 0.533 0.853 0.533 0.427 0 0.64-0.267 0.48-0.533-0.16-0.32-0.533-0.533-0.853-0.533-0.267 0-0.48 0.213-0.48 0.533z"></path>
<path d="M16.8 4.8c0.213 0.32 0.587 0.427 0.853 0.267 0.747-0.48 0.587-0.8-0.373-0.8-0.427 0-0.64 0.267-0.48 0.533z"></path>
<path d="M23.787 7.947c-0.213 0.373-0.267 0.8-0.107 0.96 0.48 0.48 1.013-0.213 0.747-0.96-0.213-0.587-0.32-0.587-0.64 0z"></path>
<path d="M13.12 10.027c-0.16 0.32-0.053 0.747 0.267 0.907 0.8 0.533 1.333-0.16 0.64-0.853-0.373-0.373-0.693-0.373-0.907-0.053z"></path>
<path d="M26.933 12.267c0.213 0.32 0.587 0.427 0.853 0.267 0.747-0.48 0.587-0.8-0.373-0.8-0.427 0-0.64 0.267-0.48 0.533z"></path>
<path d="M5.653 14.507c-0.96 1.387-1.067 2.027-0.32 2.027 0.267 0 0.853-0.747 1.333-1.6 0.96-1.867 0.213-2.187-1.013-0.427z"></path>
<path d="M16.373 14.24c-0.213 0.16-0.373 0.587-0.373 0.907s0.267 0.267 0.64-0.107c0.32-0.32 0.48-0.747 0.373-0.907-0.16-0.16-0.48-0.107-0.64 0.107z"></path>
<path d="M9.867 16c0.16 0.267 0.427 0.533 0.587 0.533 0.107 0 0.213-0.267 0.213-0.533 0-0.32-0.267-0.533-0.587-0.533-0.267 0-0.373 0.213-0.213 0.533z"></path>
<path d="M20.267 18.133c0 0.267 0.267 0.533 0.533 0.533 0.32 0 0.533-0.267 0.533-0.533 0-0.32-0.213-0.533-0.533-0.533-0.267 0-0.533 0.213-0.533 0.533z"></path>
<path d="M13.12 18.613c-0.213 0.373-0.267 0.8-0.107 0.96 0.48 0.48 1.013-0.213 0.747-0.96-0.213-0.587-0.32-0.587-0.64 0z"></path>
<path d="M4.533 20.853c-0.533 0.8 0.16 1.333 0.853 0.64 0.373-0.373 0.373-0.693 0.053-0.907-0.32-0.16-0.747-0.053-0.907 0.267z"></path>
<path d="M16 20.8c0 0.267 0.373 0.533 0.8 0.533s0.8-0.267 0.8-0.533c0-0.32-0.373-0.533-0.8-0.533s-0.8 0.213-0.8 0.533z"></path>
<path d="M10.133 23.467c0 0.267 0.373 0.533 0.853 0.533 0.427 0 0.64-0.267 0.48-0.533-0.16-0.32-0.533-0.533-0.853-0.533-0.267 0-0.48 0.213-0.48 0.533z"></path>
<path d="M17.6 25.387c0 0.427 0.267 0.64 0.533 0.48 0.32-0.16 0.533-0.533 0.533-0.853 0-0.267-0.213-0.48-0.533-0.48-0.267 0-0.533 0.373-0.533 0.853z"></path>
<path d="M6.4 26.667c0 0.267 0.213 0.533 0.48 0.533 0.32 0 0.693-0.267 0.853-0.533 0.16-0.32-0.053-0.533-0.48-0.533-0.48 0-0.853 0.213-0.853 0.533z"></path>
<path d="M13.173 27.573c-0.213 0.16-0.373 0.587-0.373 0.907s0.267 0.267 0.64-0.107c0.32-0.32 0.48-0.747 0.373-0.907-0.16-0.16-0.48-0.107-0.64 0.107z"></path>
</symbol>
<symbol id="katana" viewBox="0 0 32 32">
<path d="M26.933 1.12c-1.013 0.32-4.747 3.627-10.453 9.333-7.787 7.787-9.067 8.853-9.813 8.213-1.173-0.96-1.76-0.16-0.64 0.907 0.853 0.853 0.693 1.12-2.667 4.533-3.573 3.627-3.627 3.68-2.827 5.12 1.387 2.4 3.093 2.133 6.133-0.96 1.547-1.547 2.293-2.667 1.813-2.667-0.427 0-1.76 0.96-2.88 2.133-2.293 2.347-2.987 2.56-4 1.28-0.587-0.693-0.213-1.28 2.72-4.267l3.36-3.413 2.507 2.453c1.387 1.333 2.613 2.187 2.827 1.92 0.16-0.267-0.053-0.853-0.533-1.227-0.693-0.587 0.32-1.813 7.787-9.28 4.693-4.693 8.373-8.747 8.16-8.96s-4.213 3.467-8.96 8.16l-8.587 8.587-2.56-2.773 9.013-9.067c8.96-8.96 9.067-9.067 11.2-8.907 2.773 0.213 2.773 1.173 0.053 1.387-1.92 0.16-2.827 0.907-10.133 8.107-4.427 4.373-7.84 8.107-7.627 8.32s3.947-3.093 8.267-7.413c7.2-7.147 8.107-7.84 9.813-7.84 2.24 0 3.573-1.227 2.773-2.56-0.747-1.12-2.773-1.6-4.747-1.12z"></path>
</symbol>
<symbol id="beer" viewBox="0 0 32 32">
<path d="M10.24 0.693c-0.48 0.533-1.28 0.693-2.667 0.533-1.44-0.213-2.24-0.053-2.72 0.587-0.853 1.013-0.32 1.867 0.587 0.96 0.8-0.8 2.933-0.853 3.36-0.053 0.267 0.373 0.747 0.16 1.387-0.533 1.28-1.333 2.453-1.44 3.733-0.267 0.747 0.693 1.12 0.693 1.973 0.16 0.907-0.533 1.28-0.533 1.973 0.053 0.533 0.427 1.6 0.693 2.453 0.64 1.013-0.107 1.653 0.16 2.027 0.853 0.693 1.28 0.267 1.707-1.6 1.707-2.507 0-4.373 3.147-2.347 3.947 0.693 0.213 0.8 1.813 0.8 9.387v9.067h-11.2v-9.173c0-6.24-0.16-9.013-0.533-8.64s-0.48 3.947-0.427 9.6l0.16 9.013 13.067 0.32v-9.493c0-7.947-0.16-9.707-0.853-10.773-1.067-1.44-0.373-2.187 2.027-2.187 3.36 0 2.773-4.373-0.64-4.693-1.013-0.107-2.133-0.427-2.453-0.693s-1.44-0.48-2.4-0.427c-1.013 0-2.56-0.16-3.467-0.32-1.12-0.267-1.813-0.107-2.24 0.427z"></path>
<path d="M4.64 5.707c-0.213 0.16-0.373 5.227-0.373 11.2 0 7.733-0.213 11.147-0.64 11.893-0.533 0.8-0.533 1.333-0.107 2.027 0.533 0.8 1.707 0.907 9.333 1.067 10.88 0.16 11.36 0.107 10.933-2.187-0.96-4.587-1.013-5.707-0.107-5.707 0.48 0 1.333-0.48 1.92-1.067 1.813-1.813 1.333-11.2-0.587-11.2-0.32 0-0.32 0.373 0.053 1.013 0.907 1.707 0.693 8.373-0.32 9.333-0.427 0.48-1.067 0.747-1.333 0.587-0.267-0.213-0.48-3.2-0.48-6.72v-6.347h1.333c0.747 0 1.813 0.48 2.4 1.067 0.96 0.96 1.067 1.76 1.067 6.88 0 5.6-0.053 5.867-1.333 6.88-0.747 0.587-1.333 1.227-1.333 1.387 0 0.747 1.173 0.213 2.4-1.013 1.28-1.227 1.333-1.6 1.333-7.413v-6.080l-1.653-1.387c-1.067-0.907-2.293-1.387-3.467-1.387h-1.813v9.813c0 6.027 0.213 9.973 0.533 10.187 0.32 0.16 0.533 0.8 0.533 1.387 0 0.96-0.427 1.013-9.387 1.013h-9.387l0.427-1.173c0.213-0.693 0.533-6.24 0.587-12.32l0.213-11.093 3.413 0.32 0.16 4.907c0.107 4.32 0.267 5.013 1.227 5.547 1.76 0.907 2.56-0.267 2.72-3.947 0.107-2.507 0.373-3.307 0.96-3.307 0.533 0 0.907 0.693 1.067 1.867 0.213 1.333 0.587 1.92 1.333 2.027 0.853 0.16 0.96 0.053 0.427-0.48-0.373-0.373-0.693-1.333-0.693-2.080 0-1.6-0.907-2.667-2.24-2.667s-2.027 1.653-2.027 5.067c0 2.187-0.16 2.987-0.64 2.827s-0.747-1.76-0.853-5.013c-0.107-3.68-0.32-4.907-1.013-5.44-0.96-0.693-4-0.907-4.587-0.267z"></path>
</symbol>
<symbol id="lemon" viewBox="0 0 32 32">
<path d="M6.56 0.533c-2.187 0.907-2.667 2.453-2.613 9.6 0.053 5.28 0.267 7.040 1.013 8.48l0.907 1.867-2.933 2.987c-1.6 1.6-2.933 3.36-2.933 3.84 0 1.867 6.080 4.693 10.080 4.693 6.133 0 12.267-4.373 14.187-10.080 1.227-3.787 0.853-8.693-0.853-11.84-1.547-2.773-2.773-3.627-4.053-2.827-1.813 1.173-1.973 2.133-0.64 4 1.813 2.56 2.080 7.52 0.533 10.507-0.96 1.92-4.32 4.907-5.493 4.907-0.213 0-0.8-1.387-1.28-3.093-0.853-3.040-1.813-4.8-1.813-3.307 0 0.427 0.373 2.133 0.8 3.733s0.8 2.987 0.8 3.040c0 0.427-4.373 0.053-5.813-0.427-2.347-0.8-2.667-0.213-0.533 0.853 2.773 1.493 7.84 0.907 10.72-1.173 4.64-3.36 6.080-9.6 3.413-14.72-1.173-2.187-1.227-2.507-0.48-3.147 1.76-1.44 4.427 3.947 4.427 8.96-0.053 4.747-3.2 9.653-7.733 12.107-3.040 1.653-9.227 1.6-12.373-0.053-1.227-0.64-2.4-1.44-2.613-1.76-0.213-0.373 1.6-2.56 4.373-5.333l4.747-4.747 3.947 1.067c2.133 0.64 4.053 0.96 4.213 0.8 0.533-0.533-0.8-1.12-3.947-1.813-1.6-0.373-2.88-0.8-2.88-1.013 0-0.16 1.013-1.333 2.24-2.613 1.227-1.227 2.080-2.453 1.867-2.667s-2.4 1.6-4.853 4.053l-4.427 4.427-0.907-2.24c-0.693-1.707-0.8-3.467-0.64-8.427 0.213-5.6 0.32-6.293 1.387-7.147 0.853-0.693 1.6-0.853 2.613-0.587 0.747 0.213 2.133 0.267 2.987 0.16 0.907-0.107 3.040-0.213 4.8-0.213 7.413 0 13.813 6.4 13.813 13.813 0 1.76-0.107 4.053-0.16 5.067-0.107 1.013-0.107 2.56-0.053 3.413 0.213 2.4-1.547 3.573-4.693 3.147-3.147-0.373-2.453 0.64 0.747 1.173 1.867 0.267 2.453 0.16 3.68-0.907 0.853-0.747 1.44-1.76 1.387-2.56 0-0.747 0-2.4 0.053-3.733 0.16-7.947 0.053-8.907-1.013-11.253-1.44-3.2-4.907-6.667-8.107-8.107-2.347-1.067-6.453-1.387-10.987-0.907-0.907 0.053-2.080 0-2.667-0.16s-1.6-0.107-2.24 0.16z"></path>
<path d="M13.6 4.267c-0.16 0.267-0.053 0.533 0.213 0.533 0.32 0 0.587-0.267 0.587-0.533 0-0.32-0.107-0.533-0.213-0.533-0.16 0-0.427 0.213-0.587 0.533z"></path>
<path d="M15.733 14.987c-0.533 0.8 0.16 1.333 0.853 0.64 0.373-0.373 0.373-0.693 0.053-0.907-0.32-0.16-0.747-0.053-0.907 0.267z"></path>
<path d="M13.867 21.333c0 0.267 0.373 0.533 0.853 0.533 0.427 0 0.64-0.267 0.48-0.533-0.16-0.32-0.533-0.533-0.853-0.533-0.267 0-0.48 0.213-0.48 0.533z"></path>
<path d="M8 23.253c0 0.427 0.267 0.64 0.533 0.48 0.32-0.16 0.533-0.533 0.533-0.853 0-0.267-0.213-0.48-0.533-0.48-0.267 0-0.533 0.373-0.533 0.853z"></path>
</symbol>
<symbol id="banana" viewBox="0 0 32 32">
<path d="M20.246-0.063c3.839 0.385 8.932 0.973 11.754 3.796 0.2 1.567 0.2 1.567 0 3.2-1.067 1-1.067 1-2.133 1.6 0.264 0.792 0.264 0.792 0.533 1.6 0.474 6.414-0.29 11.502-4.39 16.629-3.030 3.117-6.642 5.057-10.992 5.398-0.728 0.008-1.457 0.010-2.185 0.006-0.542 0.013-0.542 0.013-1.095 0.026-2.728 0.003-4.543-0.609-6.939-1.793 0.176-0.528 0.352-1.056 0.533-1.6 0.462 0.176 0.924 0.352 1.4 0.533 4.403 1.235 9.478 1.24 13.556-0.931 3.796-2.432 6.341-5.32 7.775-9.675 0.773-4.311 0.27-8.675-0.865-12.86 0.88 0 1.76 0 2.667 0 0.176-0.528 0.352-1.056 0.533-1.6-0.671-0.143-1.342-0.286-2.033-0.433-2.906-0.643-5.768-1.43-8.633-2.233 0.357 1.66 0.357 1.66 1.633 2.233 0.512 0.214 0.512 0.214 1.033 0.433-0.88 4.752-3.040 9.095-6.898 12.133-2.563 1.551-5.554 2.8-8.569 2.8 0 0.528 0 1.056 0 1.6-0.528-0.176-1.056-0.352-1.6-0.533 0-0.352 0-0.704 0-1.067-1.319 0.184-1.319 0.184-2.667 0.533-0.176 0.352-0.352 0.704-0.533 1.067-0.528-0.176-1.056-0.352-1.6-0.533 0.2-1.033 0.2-1.033 0.533-2.133 1.558-0.779 3.103-0.76 4.833-0.933 4.509-0.544 7.749-1.774 10.833-5.167 1.614-2.058 3-4.019 3-6.7-0.264-0.242-0.528-0.484-0.8-0.733-0.8-0.867-0.8-0.867-0.967-2.233 0.207-1.615 0.575-2.327 2.279-2.429z"></path>
<path d="M22.933 5.867c0.528 0 1.056 0 1.6 0-0.72 5.835-3.337 10.739-8 14.4-4.326 2.995-9.314 3.541-14.4 4.267-0.176 0.704-0.352 1.408-0.533 2.133 0.792-0.264 0.792-0.264 1.6-0.533 0.176-0.352 0.352-0.704 0.533-1.067 0.528 0 1.056 0 1.6 0-0.292 1.8-0.563 2.711-1.6 4.267-1.191-0.205-2.046-0.477-3.067-1.133-1.043-1.564-0.833-2.908-0.667-4.733 1.507-1.507 2.731-1.327 4.833-1.533 3.335-0.385 6.12-1.036 9.033-2.733 0.332-0.186 0.664-0.371 1.006-0.563 4.612-2.901 6.474-7.777 8.060-12.771z"></path>
</symbol>
</defs>
</svg>